<svg width="20" height="20" viewBox="0 0 20 20" fill="none" xmlns="http://www.w3.org/2000/svg">
<path d="M5.85862 0.0700486C4.79445 0.120049 4.06778 0.290049 3.43362 0.539215C2.76671 0.791842 2.16275 1.18652 1.66362 1.69588C1.15636 2.19639 0.763967 2.80119 0.513615 3.46838C0.267782 4.10505 0.100282 4.83338 0.0536153 5.89672C0.00694868 6.96005 -0.00388465 7.30338 0.00111535 10.0192C0.00611535 12.735 0.0186153 13.075 0.070282 14.1417C0.121115 15.2059 0.290282 15.9325 0.539449 16.5676C0.796115 17.225 1.13945 17.7817 1.69612 18.3367C2.19711 18.8442 2.80249 19.2366 3.47028 19.4867C4.10612 19.7325 4.83362 19.9001 5.89778 19.9467C6.96278 19.9934 7.30528 20.0042 10.0203 19.9992C12.7353 19.9942 13.0769 19.9817 14.1428 19.9309C15.2094 19.8809 15.9319 19.7101 16.5678 19.4617C17.2344 19.209 17.8381 18.8143 18.3369 18.305C18.8444 17.8041 19.2368 17.1987 19.4869 16.5309C19.7328 15.895 19.9003 15.1675 19.9461 14.1042C19.9928 13.0375 20.0044 12.6959 19.9986 9.98088C19.9936 7.26588 19.9819 6.92505 19.9311 5.85838C19.8811 4.79172 19.7111 4.06838 19.4611 3.43255C19.2086 2.76602 18.8142 2.16235 18.3053 1.66338C17.8045 1.15603 17.1994 0.763627 16.5319 0.513382C15.8953 0.268382 15.1686 0.100049 14.1036 0.0550486C13.0394 0.00754864 12.6969 -0.00495136 9.98112 4.86415e-05C7.26528 0.00504864 6.92528 0.0175486 5.85862 0.0700486ZM5.97528 18.1476C5.00028 18.1059 4.47112 17.9434 4.11862 17.8075C3.68358 17.6486 3.28995 17.3937 2.96695 17.0617C2.6339 16.7401 2.37756 16.3476 2.21695 15.9134C2.07945 15.5609 1.91445 15.0317 1.86945 14.0567C1.81945 13.0034 1.80945 12.6867 1.80278 10.0167C1.79778 7.34672 1.80778 7.03088 1.85362 5.97672C1.89528 5.00255 2.05862 4.47255 2.19362 4.12005C2.37362 3.65255 2.59112 3.32005 2.93945 2.96838C3.2613 2.63523 3.65408 2.37889 4.08862 2.21838C4.44112 2.08088 4.96945 1.91755 5.94445 1.87088C6.99862 1.82088 7.31445 1.81088 9.98445 1.80422C12.6536 1.79922 12.9703 1.80922 14.0261 1.85588C14.9994 1.89755 15.5294 2.05922 15.8819 2.19588C16.3486 2.37588 16.6819 2.59172 17.0336 2.94172C17.3853 3.29172 17.6011 3.62255 17.7836 4.09005C17.9211 4.44172 18.0853 4.97005 18.1311 5.94588C18.1811 7.00005 18.1928 7.31672 18.1978 9.98588C18.2019 12.655 18.1928 12.9717 18.1469 14.0259C18.1044 15.0009 17.9428 15.5301 17.8069 15.8842C17.6269 16.3509 17.4094 16.6842 17.0603 17.0342C16.7387 17.3673 16.3462 17.6236 15.9119 17.7842C15.5603 17.9217 15.0303 18.0859 14.0569 18.1325C13.0019 18.1826 12.6861 18.1925 10.0153 18.1984C7.34445 18.2042 7.03028 18.1926 5.97528 18.1476ZM14.1278 4.65505C14.1281 4.89242 14.1988 5.12436 14.331 5.32154C14.4632 5.51871 14.6508 5.67226 14.8703 5.76275C15.0897 5.85325 15.3311 5.87663 15.5638 5.82993C15.7966 5.78324 16.0102 5.66857 16.1778 5.50043C16.3453 5.33229 16.4593 5.11824 16.5051 4.88534C16.551 4.65245 16.5268 4.41117 16.4356 4.19204C16.3443 3.97291 16.1901 3.78577 15.9925 3.65429C15.7948 3.5228 15.5627 3.45289 15.3253 3.45338C15.0072 3.45404 14.7023 3.58099 14.4778 3.80633C14.2532 4.03166 14.1273 4.33693 14.1278 4.65505ZM4.86612 10.01C4.86877 11.3718 5.41227 12.6768 6.37707 13.6378C7.34187 14.5989 8.64892 15.1373 10.0107 15.1346C11.3725 15.132 12.6774 14.5885 13.6385 13.6237C14.5995 12.6589 15.1379 11.3518 15.1353 9.99005C15.1156 8.6395 14.5647 7.35107 13.6018 6.4039C12.6388 5.45672 11.3415 4.92707 9.99082 4.9297C8.64014 4.93233 7.34487 5.46703 6.38565 6.41795C5.42643 7.36887 4.88049 8.65944 4.86612 10.01ZM6.66695 10.0067C6.66563 9.34745 6.85984 8.70259 7.22501 8.1537C7.59019 7.6048 8.10993 7.17652 8.71851 6.92301C9.32709 6.6695 9.99718 6.60215 10.644 6.72948C11.2909 6.8568 11.8855 7.17308 12.3526 7.63832C12.8197 8.10357 13.1383 8.69687 13.2683 9.34321C13.3982 9.98956 13.3335 10.6599 13.0824 11.2695C12.8313 11.8791 12.4051 12.4005 11.8577 12.7679C11.3103 13.1353 10.6662 13.3321 10.0069 13.3334C9.56921 13.3343 9.13558 13.2489 8.73083 13.0822C8.32607 12.9155 7.95812 12.6707 7.64797 12.3618C7.33782 12.0529 7.09156 11.6859 6.92323 11.2818C6.75491 10.8777 6.66782 10.4445 6.66695 10.0067Z" fill="#6B6B6B"/>
</svg>
